{
  "accessors": [
    {
      "bufferView": 2,
      "componentType": 5126,
      "count": 6332,
      "max": [
        24.0,
        23.40703773498535,
        5.599999904632568
      ],
      "min": [
        0.0,
        0.0,
        -0.6000000238418579
      ],
      "type": "VEC3"
    },
    {
      "bufferView": 2,
      "byteOffset": 75984,
      "componentType": 5126,
      "count": 6332,
      "max": [
        0.9999929666519165,
        0.9999961256980896,
        1.0
      ],
      "min": [
        -0.999999463558197,
        -0.9956979155540466,
        -1.0
      ],
      "type": "VEC3"
    },
    {
      "bufferView": 1,
      "componentType": 5126,
      "count": 6332,
      "max": [
        24.0,
        23.40703773498535
      ],
      "min": [
        0.0,
        -4.599999904632568
      ],
      "type": "VEC2"
    },
    {
      "bufferView": 0,
      "componentType": 5125,
      "count": 11988,
      "type": "SCALAR"
    }
  ],
  "asset": {
    "extras": {
      "author": "sudo-self (https://sketchfab.com/sudo-self)",
      "license": "CC-BY-4.0 (http://creativecommons.org/licenses/by/4.0/)",
      "source": "https://sketchfab.com/3d-models/github-b2bd1d8290e44ce49e7e41dd495592b5",
      "title": "GitHub"
    },
    "generator": "Sketchfab-16.72.0",
    "version": "2.0"
  },
  "bufferViews": [
    {
      "buffer": 0,
      "byteLength": 47952,
      "name": "floatBufferViews",
      "target": 34963
    },
    {
      "buffer": 0,
      "byteLength": 50656,
      "byteOffset": 47952,
      "byteStride": 8,
      "name": "floatBufferViews",
      "target": 34962
    },
    {
      "buffer": 0,
      "byteLength": 151968,
      "byteOffset": 98608,
      "byteStride": 12,
      "name": "floatBufferViews",
      "target": 34962
    }
  ],
  "buffers": [
    {
      "byteLength": 250576,
      "uri": "scene.bin"
    }
  ],
  "extensionsUsed": [
    "KHR_materials_clearcoat",
    "KHR_materials_transmission"
  ],
  "materials": [
    {
      "alphaMode": "BLEND",
      "doubleSided": true,
      "extensions": {
        "KHR_materials_clearcoat": {
          "clearcoatFactor": 1.0,
          "clearcoatRoughnessFactor": 0.05
        },
        "KHR_materials_transmission": {
          "transmissionFactor": 0.95
        }
      },
      "name": "material_0",
      "pbrMetallicRoughness": {
        "baseColorFactor": [
          0.0030822762267459346,
          0.002959530713291451,
          0.002959530713291451,
          0.25
        ],
        "metallicFactor": 0.6021341463414634
      }
    }
  ],
  "meshes": [
    {
      "name": "Object_0",
      "primitives": [
        {
          "attributes": {
            "NORMAL": 1,
            "POSITION": 0,
            "TEXCOORD_0": 2
          },
          "indices": 3,
          "material": 0,
          "mode": 4
        }
      ]
    }
  ],
  "nodes": [
    {
      "children": [
        1
      ],
      "matrix": [
        1.0,
        0.0,
        0.0,
        0.0,
        0.0,
        2.220446049250313e-16,
        -1.0,
        0.0,
        0.0,
        1.0,
        2.220446049250313e-16,
        0.0,
        0.0,
        0.0,
        0.0,
        1.0
      ],
      "name": "Sketchfab_model"
    },
    {
      "children": [
        2
      ],
      "name": "root"
    },
    {
      "children": [
        3
      ],
      "matrix": [
        1.0,
        0.0,
        0.0,
        0.0,
        0.0,
        2.220446049250313e-16,
        1.0,
        0.0,
        0.0,
        -1.0,
        2.220446049250313e-16,
        0.0,
        0.0,
        0.0,
        0.0,
        1.0
      ],
      "name": "GLTF_SceneRootNode"
    },
    {
      "children": [
        4
      ],
      "name": "_6"
    },
    {
      "children": [
        5
      ],
      "name": "_5"
    },
    {
      "children": [
        6
      ],
      "matrix": [
        1.0,
        0.0,
        0.0,
        0.0,
        0.0,
        1.0,
        0.0,
        0.0,
        0.0,
        0.0,
        1.0,
        0.0,
        3.5122371855322854e-07,
        0.004558017011731863,
        -7.024474939498759e-07,
        1.0
      ],
      "name": "_4"
    },
    {
      "children": [
        7
      ],
      "name": "_3"
    },
    {
      "children": [
        8
      ],
      "matrix": [
        2.94627811259942,
        0.0,
        -2.946278172505284,
        0.0,
        -0.0,
        -4.166666507720947,
        -0.0,
        -0.0,
        2.946278172505284,
        0.0,
        2.94627811259942,
        0.0,
        0.0,
        0.0,
        0.0,
        1.0
      ],
      "name": "_2"
    },
    {
      "children": [
        9
      ],
      "name": "_1"
    },
    {
      "children": [
        10
      ],
      "matrix": [
        1.0,
        0.0,
        0.0,
        0.0,
        0.0,
        1.0,
        0.0,
        0.0,
        0.0,
        0.0,
        1.0,
        0.0,
        -12.0,
        -11.702499389648438,
        -2.5,
        1.0
      ],
      "name": "_0"
    },
    {
      "mesh": 0,
      "name": "Object_10"
    }
  ],
  "scene": 0,
  "scenes": [
    {
      "name": "Sketchfab_Scene",
      "nodes": [
        0
      ]
    }
  ]
}
