{
	"asset":{
		"generator":"Khronos glTF Blender I/O v4.4.56",
		"version":"2.0"
	},
	"extensionsUsed":[
		"KHR_materials_clearcoat",
		"KHR_materials_transmission"
	],
	"scene":0,
	"scenes":[
		{
			"name":"Scene",
			"nodes":[
				10
			]
		}
	],
	"nodes":[
		{
			"mesh":0,
			"name":"Object_10",
			"rotation":[
				0,
				0.3826833963394165,
				0,
				0.9238795638084412
			],
			"scale":[
				1,
				1,
				0.15951508283615112
			],
			"translation":[
				12.229900360107422,
				10.848332405090332,
				2.5
			]
		},
		{
			"children":[
				0
			],
			"name":"_0",
			"translation":[
				-12.000000953674316,
				-11.702498435974121,
				-2.5
			]
		},
		{
			"children":[
				1
			],
			"name":"_1"
		},
		{
			"children":[
				2
			],
			"name":"_2",
			"rotation":[
				0,
				-0.9238795638084412,
				0,
				0.3826834261417389
			],
			"scale":[
				-4.166666507720947,
				-4.166666507720947,
				-4.166666507720947
			]
		},
		{
			"children":[
				3
			],
			"name":"_3"
		},
		{
			"children":[
				4
			],
			"name":"_4",
			"translation":[
				0,
				0.004558017011731863,
				0
			]
		},
		{
			"children":[
				5
			],
			"name":"_5"
		},
		{
			"children":[
				6
			],
			"name":"_6"
		},
		{
			"children":[
				7
			],
			"name":"GLTF_SceneRootNode",
			"rotation":[
				0.70710688829422,
				0,
				0,
				0.7071066498756409
			]
		},
		{
			"children":[
				8
			],
			"name":"root"
		},
		{
			"children":[
				9
			],
			"name":"Sketchfab_model",
			"rotation":[
				-0.70710688829422,
				0,
				0,
				0.7071066498756409
			]
		}
	],
	"materials":[
		{
			"alphaMode":"BLEND",
			"doubleSided":true,
			"extensions":{
				"KHR_materials_clearcoat":{
					"clearcoatFactor":1,
					"clearcoatRoughnessFactor":0.05000000074505806
				},
				"KHR_materials_transmission":{
					"transmissionFactor":0.949999988079071
				}
			},
			"name":"material_0",
			"pbrMetallicRoughness":{
				"baseColorFactor":[
					0.0030822763219475746,
					0.0029595308005809784,
					0.0029595308005809784,
					0.25
				],
				"metallicFactor":0.6021341681480408
			}
		}
	],
	"meshes":[
		{
			"name":"Object_0",
			"primitives":[
				{
					"attributes":{
						"POSITION":0,
						"NORMAL":1,
						"TEXCOORD_0":2
					},
					"indices":3,
					"material":0
				}
			]
		}
	],
	"accessors":[
		{
			"bufferView":0,
			"componentType":5126,
			"count":6448,
			"max":[
				11.770099639892578,
				12.55870532989502,
				3.0999999046325684
			],
			"min":[
				-12.229900360107422,
				-10.848332405090332,
				-3.0999999046325684
			],
			"type":"VEC3"
		},
		{
			"bufferView":1,
			"componentType":5126,
			"count":6448,
			"type":"VEC3"
		},
		{
			"bufferView":2,
			"componentType":5126,
			"count":6448,
			"type":"VEC2"
		},
		{
			"bufferView":3,
			"componentType":5123,
			"count":11988,
			"type":"SCALAR"
		}
	],
	"bufferViews":[
		{
			"buffer":0,
			"byteLength":77376,
			"byteOffset":0,
			"target":34962
		},
		{
			"buffer":0,
			"byteLength":77376,
			"byteOffset":77376,
			"target":34962
		},
		{
			"buffer":0,
			"byteLength":51584,
			"byteOffset":154752,
			"target":34962
		},
		{
			"buffer":0,
			"byteLength":23976,
			"byteOffset":206336,
			"target":34963
		}
	],
	"buffers":[
		{
			"byteLength":230312,
			"uri":"scene.bin"
		}
	]
}
