{
	"asset":{
		"generator":"Khronos glTF Blender I/O v4.4.56",
		"version":"2.0"
	},
	"extensionsUsed":[
		"KHR_materials_clearcoat"
	],
	"scene":0,
	"scenes":[
		{
			"name":"Scene",
			"nodes":[
				2
			]
		}
	],
	"nodes":[
		{
			"mesh":0,
			"name":"Object_2",
			"scale":[
				1,
				0.2390296459197998,
				1
			]
		},
		{
			"children":[
				0
			],
			"name":"export3dcoat.obj.cleaner.materialmerger.gles"
		},
		{
			"children":[
				1
			],
			"name":"Sketchfab_model",
			"rotation":[
				-0.70710688829422,
				0,
				0,
				0.7071066498756409
			]
		}
	],
	"materials":[
		{
			"doubleSided":true,
			"emissiveFactor":[
				1,
				1,
				1
			],
			"emissiveTexture":{
				"index":0
			},
			"extensions":{
				"KHR_materials_clearcoat":{
					"clearcoatFactor":1,
					"clearcoatRoughnessFactor":0.03999999910593033
				}
			},
			"name":"default",
			"normalTexture":{
				"index":1
			},
			"pbrMetallicRoughness":{
				"baseColorTexture":{
					"index":2
				},
				"metallicRoughnessTexture":{
					"index":3
				}
			}
		}
	],
	"meshes":[
		{
			"name":"Object_0.001",
			"primitives":[
				{
					"attributes":{
						"POSITION":0,
						"NORMAL":1,
						"TEXCOORD_0":2
					},
					"indices":3,
					"material":0
				}
			]
		}
	],
	"textures":[
		{
			"sampler":0,
			"source":0
		},
		{
			"sampler":0,
			"source":1
		},
		{
			"sampler":0,
			"source":2
		},
		{
			"sampler":0,
			"source":3
		}
	],
	"images":[
		{
			"mimeType":"image/png",
			"name":"default_emissive",
			"uri":"default_emissive.png"
		},
		{
			"mimeType":"image/png",
			"name":"default_normal",
			"uri":"default_normal.png"
		},
		{
			"mimeType":"image/png",
			"name":"default_baseColor",
			"uri":"default_baseColor.png"
		},
		{
			"mimeType":"image/png",
			"name":"default_metallicRoughness",
			"uri":"default_metallicRoughness.png"
		}
	],
	"accessors":[
		{
			"bufferView":0,
			"componentType":5126,
			"count":1178,
			"max":[
				69.59814453125,
				5.494402885437012,
				69.24386596679688
			],
			"min":[
				-69.91748046875,
				-5.547016143798828,
				-70.27175903320312
			],
			"type":"VEC3"
		},
		{
			"bufferView":1,
			"componentType":5126,
			"count":1178,
			"type":"VEC3"
		},
		{
			"bufferView":2,
			"componentType":5126,
			"count":1178,
			"type":"VEC2"
		},
		{
			"bufferView":3,
			"componentType":5123,
			"count":3414,
			"type":"SCALAR"
		}
	],
	"bufferViews":[
		{
			"buffer":0,
			"byteLength":14136,
			"byteOffset":0,
			"target":34962
		},
		{
			"buffer":0,
			"byteLength":14136,
			"byteOffset":14136,
			"target":34962
		},
		{
			"buffer":0,
			"byteLength":9424,
			"byteOffset":28272,
			"target":34962
		},
		{
			"buffer":0,
			"byteLength":6828,
			"byteOffset":37696,
			"target":34963
		}
	],
	"samplers":[
		{
			"magFilter":9729,
			"minFilter":9987
		}
	],
	"buffers":[
		{
			"byteLength":44524,
			"uri":"scene.bin"
		}
	]
}
