{
	"asset":{
		"generator":"Khronos glTF Blender I/O v4.4.56",
		"version":"2.0"
	},
	"scene":0,
	"scenes":[
		{
			"name":"Scene",
			"nodes":[
				5
			]
		}
	],
	"nodes":[
		{
			"mesh":0,
			"name":"Mesh_1",
			"rotation":[
				0,
				-0.3826836049556732,
				0,
				0.9238795042037964
			],
			"translation":[
				220.34078979492188,
				268.8395690917969,
				4.99999475479126
			]
		},
		{
			"children":[
				0
			],
			"name":"Node_12",
			"rotation":[
				0,
				-0.9238795638084412,
				0,
				0.3826834261417389
			],
			"scale":[
				-0.1793239563703537,
				-0.1793239414691925,
				-0.1793239563703537
			]
		},
		{
			"children":[
				1
			],
			"name":"Node_13"
		},
		{
			"children":[
				2
			],
			"name":"Node_14",
			"translation":[
				-28.337528228759766,
				50,
				27.830322265625
			]
		},
		{
			"children":[
				3
			],
			"name":"Node_15"
		},
		{
			"children":[
				4
			],
			"name":"Node_16"
		}
	],
	"materials":[
		{
			"doubleSided":true,
			"name":"Material_0",
			"pbrMetallicRoughness":{
				"baseColorFactor":[
					0.637596845626831,
					0.6653872728347778,
					0.7083757519721985,
					1
				],
				"metallicFactor":0,
				"roughnessFactor":0
			}
		}
	],
	"meshes":[
		{
			"name":"Mesh_1",
			"primitives":[
				{
					"attributes":{
						"POSITION":0,
						"NORMAL":1,
						"TEXCOORD_0":2
					},
					"indices":3,
					"material":0
				}
			]
		}
	],
	"accessors":[
		{
			"bufferView":0,
			"componentType":5126,
			"count":51528,
			"max":[
				222.61917114257812,
				288.8104248046875,
				5.600010395050049
			],
			"min":[
				-220.34075927734375,
				-268.83953857421875,
				-5.600001811981201
			],
			"type":"VEC3"
		},
		{
			"bufferView":1,
			"componentType":5126,
			"count":51528,
			"type":"VEC3"
		},
		{
			"bufferView":2,
			"componentType":5126,
			"count":51528,
			"type":"VEC2"
		},
		{
			"bufferView":3,
			"componentType":5123,
			"count":51528,
			"type":"SCALAR"
		}
	],
	"bufferViews":[
		{
			"buffer":0,
			"byteLength":618336,
			"byteOffset":0,
			"target":34962
		},
		{
			"buffer":0,
			"byteLength":618336,
			"byteOffset":618336,
			"target":34962
		},
		{
			"buffer":0,
			"byteLength":412224,
			"byteOffset":1236672,
			"target":34962
		},
		{
			"buffer":0,
			"byteLength":103056,
			"byteOffset":1648896,
			"target":34963
		}
	],
	"buffers":[
		{
			"byteLength":1751952,
			"uri":"resume.bin"
		}
	]
}
