{
	"asset":{
		"generator":"Khronos glTF Blender I/O v4.4.56",
		"version":"2.0"
	},
	"extensionsUsed":[
		"KHR_materials_emissive_strength",
		"KHR_materials_specular"
	],
	"scene":0,
	"scenes":[
		{
			"name":"Scene",
			"nodes":[
				2
			]
		}
	],
	"nodes":[
		{
			"mesh":0,
			"name":"Object_2",
			"rotation":[
				0,
				0,
				1,
				2.2649371089755732e-07
			]
		},
		{
			"children":[
				0
			],
			"name":"Toyota AE86.obj.cleaner.materialmerger.gles"
		},
		{
			"children":[
				1
			],
			"name":"Sketchfab_model",
			"rotation":[
				-0.70710688829422,
				0,
				0,
				0.7071066498756409
			],
			"scale":[
				0.2673557996749878,
				0.2673558294773102,
				0.2673558294773102
			]
		}
	],
	"materials":[
		{
			"alphaMode":"BLEND",
			"doubleSided":true,
			"emissiveFactor":[
				1,
				1,
				1
			],
			"emissiveTexture":{
				"index":0
			},
			"extensions":{
				"KHR_materials_emissive_strength":{
					"emissiveStrength":2
				},
				"KHR_materials_specular":{
					"specularFactor":0.13866709172725677
				}
			},
			"name":"palette",
			"pbrMetallicRoughness":{
				"baseColorFactor":[
					0.9127646684646606,
					0.9127646684646606,
					0.9127646684646606,
					1
				],
				"baseColorTexture":{
					"index":1
				},
				"metallicFactor":0.19352440536022186,
				"metallicRoughnessTexture":{
					"index":2
				},
				"roughnessFactor":0.32152479887008667
			}
		}
	],
	"meshes":[
		{
			"name":"Object_0",
			"primitives":[
				{
					"attributes":{
						"POSITION":0,
						"NORMAL":1,
						"TEXCOORD_0":2
					},
					"indices":3,
					"material":0
				}
			]
		}
	],
	"textures":[
		{
			"sampler":0,
			"source":0
		},
		{
			"sampler":0,
			"source":1
		},
		{
			"sampler":0,
			"source":2
		}
	],
	"images":[
		{
			"mimeType":"image/png",
			"name":"palette_emissive",
			"uri":"palette_emissive.png"
		},
		{
			"mimeType":"image/png",
			"name":"palette_baseColor",
			"uri":"palette_baseColor.png"
		},
		{
			"mimeType":"image/png",
			"name":"palette_metallicRoughness",
			"uri":"palette_metallicRoughness.png"
		}
	],
	"accessors":[
		{
			"bufferView":0,
			"componentType":5126,
			"count":29050,
			"max":[
				3.799999952316284,
				8.699999809265137,
				5.300000190734863
			],
			"min":[
				-3.700000047683716,
				-7.699999809265137,
				0
			],
			"type":"VEC3"
		},
		{
			"bufferView":1,
			"componentType":5126,
			"count":29050,
			"type":"VEC3"
		},
		{
			"bufferView":2,
			"componentType":5126,
			"count":29050,
			"type":"VEC2"
		},
		{
			"bufferView":3,
			"componentType":5123,
			"count":55632,
			"type":"SCALAR"
		}
	],
	"bufferViews":[
		{
			"buffer":0,
			"byteLength":348600,
			"byteOffset":0,
			"target":34962
		},
		{
			"buffer":0,
			"byteLength":348600,
			"byteOffset":348600,
			"target":34962
		},
		{
			"buffer":0,
			"byteLength":232400,
			"byteOffset":697200,
			"target":34962
		},
		{
			"buffer":0,
			"byteLength":111264,
			"byteOffset":929600,
			"target":34963
		}
	],
	"samplers":[
		{
			"magFilter":9729,
			"minFilter":9987
		}
	],
	"buffers":[
		{
			"byteLength":1040864,
			"uri":"scene.bin"
		}
	]
}
