{
	"asset":{
		"generator":"Khronos glTF Blender I/O v4.4.56",
		"version":"2.0"
	},
	"scene":0,
	"scenes":[
		{
			"name":"Scene",
			"nodes":[
				0
			]
		}
	],
	"nodes":[
		{
			"mesh":0,
			"name":"Mesh1.0"
		}
	],
	"meshes":[
		{
			"name":"Mesh1.005",
			"primitives":[
				{
					"attributes":{
						"POSITION":0,
						"NORMAL":1
					},
					"indices":2
				}
			]
		}
	],
	"accessors":[
		{
			"bufferView":0,
			"componentType":5126,
			"count":49129,
			"max":[
				1.0020933151245117,
				1.0022189617156982,
				0.035931892693042755
			],
			"min":[
				-1.0014930963516235,
				-1.0019663572311401,
				-0.037249285727739334
			],
			"type":"VEC3"
		},
		{
			"bufferView":1,
			"componentType":5126,
			"count":49129,
			"type":"VEC3"
		},
		{
			"bufferView":2,
			"componentType":5123,
			"count":294774,
			"type":"SCALAR"
		}
	],
	"bufferViews":[
		{
			"buffer":0,
			"byteLength":589548,
			"byteOffset":0,
			"target":34962
		},
		{
			"buffer":0,
			"byteLength":589548,
			"byteOffset":589548,
			"target":34962
		},
		{
			"buffer":0,
			"byteLength":589548,
			"byteOffset":1179096,
			"target":34963
		}
	],
	"buffers":[
		{
			"byteLength":1768644,
			"uri":"scene.bin"
		}
	]
}
